<?xml version="1.0" encoding="UTF-8" standalone="no"?>
<!-- Created with Inkscape (http://www.inkscape.org/) -->

<svg
   version="1.1"
   id="svg89"
   width="739.68201"
   height="640.33081"
   viewBox="0 0 739.68203 640.33083"
   sodipodi:docname="opengpa_logo.svg"
   inkscape:version="1.2.1 (9c6d41e, 2022-07-14)"
   xmlns:inkscape="http://www.inkscape.org/namespaces/inkscape"
   xmlns:sodipodi="http://sodipodi.sourceforge.net/DTD/sodipodi-0.dtd"
   xmlns="http://www.w3.org/2000/svg"
   xmlns:svg="http://www.w3.org/2000/svg">
  <defs
     id="defs93" />
  <sodipodi:namedview
     id="namedview91"
     pagecolor="#ffffff"
     bordercolor="#000000"
     borderopacity="0.25"
     inkscape:showpageshadow="2"
     inkscape:pageopacity="0.0"
     inkscape:pagecheckerboard="0"
     inkscape:deskcolor="#d1d1d1"
     showgrid="false"
     inkscape:zoom="0.17285157"
     inkscape:cx="329.76269"
     inkscape:cy="321.08473"
     inkscape:window-width="1440"
     inkscape:window-height="847"
     inkscape:window-x="0"
     inkscape:window-y="25"
     inkscape:window-maximized="1"
     inkscape:current-layer="g95" />
  <g
     inkscape:groupmode="layer"
     inkscape:label="Image"
     id="g95"
     transform="translate(-354.98461,-365.79906)">
    <g
       id="g312"
       style="display:inline">
      <path
         style="fill:#000000;stroke-width:1.33333"
         d="M 659.33332,1005.8721 C 610.05977,1000.9172 566.96084,987.57874 527.508,965.07415 470.17496,932.37039 428.38276,892.24338 396.5492,839.33331 c -11.11813,-18.47928 -12.98545,-22.1718 -19.85048,-39.25356 -27.5183,-68.47169 -28.92918,-146.4921 -3.9585,-218.90156 10.49274,-30.42664 31.59918,-68.31404 51.16389,-91.8424 33.17876,-39.90055 69.57033,-68.93409 114.09588,-91.02679 28.25241,-14.01829 55.49426,-22.64753 91.99999,-29.14226 30.8823,-5.49428 86.55534,-4.08916 116,2.92768 31.47973,7.50181 58.51652,17.33942 83.33333,30.3217 17.14844,8.97078 21.90358,11.90094 34.66667,21.36195 65.55405,48.59385 109.47468,112.84084 127.8203,186.97528 11.25142,45.46673 12.03082,98.24514 2.15467,145.9133 -2.07548,10.01758 -9.60787,35.33333 -10.513,35.33333 -0.22704,0 -8.14888,-9.11648 -17.60407,-20.25884 -9.45517,-11.14237 -19.52066,-22.84564 -22.36774,-26.00726 l -5.1765,-5.7484 2.43786,-16.99275 c 3.08006,-21.4692 3.0993,-56.46805 0.042,-76.32287 -7.15983,-46.49687 -27.59854,-91.55491 -59.58921,-131.36706 -16.11878,-20.05961 -31.03104,-34.21657 -50.63464,-48.06993 -26.73216,-18.89092 -40.88702,-26.27881 -66.30276,-34.60563 -49.91335,-16.35281 -96.38185,-18.06065 -147.60024,-5.42469 -37.82113,9.33076 -66.96696,22.839 -96.36162,44.66079 -40.44575,30.02582 -78.83484,83.59843 -94.20883,131.46998 -10.49196,32.66988 -13.48642,54.81494 -12.39966,91.69954 1.05245,35.72055 5.08692,55.14215 18.51113,89.11096 14.52213,36.74705 39.30143,71.84781 70.41322,99.74288 32.79008,29.39982 79.17322,52.40222 125.37909,62.17822 13.95684,2.95291 21.2747,3.64027 45.00815,4.22759 39.50577,0.97761 59.99792,-1.99063 93.71481,-13.5744 25.37224,-8.71689 60.14965,-27.66092 77.89125,-42.42909 l 3.94756,-3.28596 5.54284,6.16513 c 9.87987,10.98907 28.56206,33.71479 28.56206,34.74396 0,1.75692 -11.90972,11.10024 -27.85947,21.85609 -16.80353,11.33162 -43.49975,25.35788 -61.47387,32.29856 -18.93765,7.31275 -49.72657,15.079 -70.66666,17.8251 -11.06399,1.4509 -54.95113,2.8231 -63.33333,1.9802 z m 363.33328,-56.59544 c -21.9021,-1.96764 -40.0038,-8.56604 -59.97702,-21.86276 -20.49643,-13.64503 -31.46227,-25.59394 -67.53696,-73.59156 -5.03396,-6.69771 -19.57415,-25.51828 -32.31156,-41.82351 C 824.20787,762.54427 777.42065,700.48785 747.27445,658.71656 727.77249,631.6942 719.4856,623.18485 706.47732,616.82425 c -20.97348,-10.25529 -39.6834,-11.40304 -60.72064,-3.72485 -13.82202,5.04477 -20.30732,9.53628 -32.27888,22.3553 -18.99891,20.34386 -26.73597,45.5577 -22.88712,74.5854 2.73411,20.62044 10.79635,36.49051 26.74264,52.6414 17.01102,17.22929 34.00344,23.9354 60.66666,23.94229 21.46856,0.005 37.14378,-4.9885 55.64656,-17.72872 l 8.97991,-6.18316 8.67093,10.16228 c 4.76901,5.58926 12.22792,14.81646 16.57535,20.50488 l 7.9044,10.34262 -4.22191,4.35762 c -14.54487,15.01244 -41.27837,28.62654 -65.55524,33.38414 -13.45206,2.63624 -42.78312,2.34709 -56.42984,-0.55627 -32.41152,-6.89563 -60.42623,-23.3762 -80.7395,-47.49767 -10.23,-12.14785 -22.39204,-30.57848 -26.89076,-40.75088 -14.41927,-32.60453 -14.19831,-73.1967 0.61347,-112.70094 7.04048,-18.77756 26.88138,-44.42517 45.04504,-58.22809 25.71513,-19.54144 68.3457,-31.77691 98.97391,-28.40667 43.262,4.76044 70.38089,22.64018 103.39721,68.17069 22.63422,31.21328 86.41251,116.52027 96.07556,128.50636 5.32084,6.6 15.8874,20.16247 23.48124,30.13881 63.14671,82.9584 70.19119,91.358 85.14033,101.51836 4.03334,2.7413 10.91076,6.23993 15.28316,7.77473 8.3086,2.91651 27.0271,5.42316 33.9525,4.54671 3.7623,-0.47615 5.2686,0.94219 22.3989,21.08968 21.1831,24.91412 28.3654,33.73148 28.3654,34.82277 0,1.10374 -58.4246,0.6052 -72,-0.61438 z"
         id="path307" />
      <path
         style="fill:#000000;stroke-width:1.33333"
         d="M 659.33332,1005.8721 C 610.05977,1000.9172 566.96084,987.57874 527.508,965.07415 470.17496,932.37039 428.38276,892.24338 396.5492,839.33331 c -11.11813,-18.47928 -12.98545,-22.1718 -19.85048,-39.25356 -27.5183,-68.47169 -28.92918,-146.4921 -3.9585,-218.90156 10.49274,-30.42664 31.59918,-68.31404 51.16389,-91.8424 33.17876,-39.90055 69.57033,-68.93409 114.09588,-91.02679 28.25241,-14.01829 55.49426,-22.64753 91.99999,-29.14226 30.8823,-5.49428 86.55534,-4.08916 116,2.92768 31.47973,7.50181 58.51652,17.33942 83.33333,30.3217 17.14844,8.97078 21.90358,11.90094 34.66667,21.36195 65.55405,48.59385 109.47468,112.84084 127.8203,186.97528 11.25142,45.46673 12.03082,98.24514 2.15467,145.9133 -2.07548,10.01758 -9.60787,35.33333 -10.513,35.33333 -0.22704,0 -8.14888,-9.11648 -17.60407,-20.25884 -9.45517,-11.14237 -19.52066,-22.84564 -22.36774,-26.00726 l -5.1765,-5.7484 2.43786,-16.99275 c 3.08006,-21.4692 3.0993,-56.46805 0.042,-76.32287 -7.15983,-46.49687 -27.59854,-91.55491 -59.58921,-131.36706 -16.11878,-20.05961 -31.03104,-34.21657 -50.63464,-48.06993 -26.73216,-18.89092 -40.88702,-26.27881 -66.30276,-34.60563 -49.91335,-16.35281 -96.38185,-18.06065 -147.60024,-5.42469 -37.82113,9.33076 -66.96696,22.839 -96.36162,44.66079 -40.44575,30.02582 -78.83484,83.59843 -94.20883,131.46998 -10.49196,32.66988 -13.48642,54.81494 -12.39966,91.69954 1.05245,35.72055 5.08692,55.14215 18.51113,89.11096 14.52213,36.74705 39.30143,71.84781 70.41322,99.74288 32.79008,29.39982 79.17322,52.40222 125.37909,62.17822 13.95684,2.95291 21.2747,3.64027 45.00815,4.22759 39.50577,0.97761 59.99792,-1.99063 93.71481,-13.5744 25.37224,-8.71689 60.14965,-27.66092 77.89125,-42.42909 l 3.94756,-3.28596 5.54284,6.16513 c 9.87987,10.98907 28.56206,33.71479 28.56206,34.74396 0,1.75692 -11.90972,11.10024 -27.85947,21.85609 -16.80353,11.33162 -43.49975,25.35788 -61.47387,32.29856 -18.93765,7.31275 -49.72657,15.079 -70.66666,17.8251 -11.06399,1.4509 -54.95113,2.8231 -63.33333,1.9802 z m 363.33328,-56.59544 c -21.9021,-1.96764 -40.0038,-8.56604 -59.97702,-21.86276 -20.49643,-13.64503 -31.46227,-25.59394 -67.53696,-73.59156 -5.03396,-6.69771 -19.57415,-25.51828 -32.31156,-41.82351 C 824.20787,762.54427 777.42065,700.48785 747.27445,658.71656 727.77249,631.6942 719.4856,623.18485 706.47732,616.82425 c -20.97348,-10.25529 -39.6834,-11.40304 -60.72064,-3.72485 -13.82202,5.04477 -20.30732,9.53628 -32.27888,22.3553 -18.99891,20.34386 -26.73597,45.5577 -22.88712,74.5854 2.73411,20.62044 10.79635,36.49051 26.74264,52.6414 17.01102,17.22929 34.00344,23.9354 60.66666,23.94229 21.46856,0.005 37.14378,-4.9885 55.64656,-17.72872 l 8.97991,-6.18316 8.67093,10.16228 c 4.76901,5.58926 12.22792,14.81646 16.57535,20.50488 l 7.9044,10.34262 -4.22191,4.35762 c -14.54487,15.01244 -41.27837,28.62654 -65.55524,33.38414 -13.45206,2.63624 -42.78312,2.34709 -56.42984,-0.55627 -32.41152,-6.89563 -60.42623,-23.3762 -80.7395,-47.49767 -10.23,-12.14785 -22.39204,-30.57848 -26.89076,-40.75088 -14.41927,-32.60453 -14.19831,-73.1967 0.61347,-112.70094 7.04048,-18.77756 26.88138,-44.42517 45.04504,-58.22809 25.71513,-19.54144 68.3457,-31.77691 98.97391,-28.40667 43.262,4.76044 70.38089,22.64018 103.39721,68.17069 22.63422,31.21328 86.41251,116.52027 96.07556,128.50636 5.32084,6.6 15.8874,20.16247 23.48124,30.13881 63.14671,82.9584 70.19119,91.358 85.14033,101.51836 4.03334,2.7413 10.91076,6.23993 15.28316,7.77473 8.3086,2.91651 27.0271,5.42316 33.9525,4.54671 3.7623,-0.47615 5.2686,0.94219 22.3989,21.08968 21.1831,24.91412 28.3654,33.73148 28.3654,34.82277 0,1.10374 -58.4246,0.6052 -72,-0.61438 z"
         id="path305" />
      <path
         style="fill:#000000;stroke-width:1.33333"
         d="M 659.33332,1005.8721 C 610.05977,1000.9172 566.96084,987.57874 527.508,965.07415 470.17496,932.37039 428.38276,892.24338 396.5492,839.33331 c -11.11813,-18.47928 -12.98545,-22.1718 -19.85048,-39.25356 -27.5183,-68.47169 -28.92918,-146.4921 -3.9585,-218.90156 10.49274,-30.42664 31.59918,-68.31404 51.16389,-91.8424 33.17876,-39.90055 69.57033,-68.93409 114.09588,-91.02679 28.25241,-14.01829 55.49426,-22.64753 91.99999,-29.14226 30.8823,-5.49428 86.55534,-4.08916 116,2.92768 31.47973,7.50181 58.51652,17.33942 83.33333,30.3217 17.14844,8.97078 21.90358,11.90094 34.66667,21.36195 65.55405,48.59385 109.47468,112.84084 127.8203,186.97528 11.25142,45.46673 12.03082,98.24514 2.15467,145.9133 -2.07548,10.01758 -9.60787,35.33333 -10.513,35.33333 -0.22704,0 -8.14888,-9.11648 -17.60407,-20.25884 -9.45517,-11.14237 -19.52066,-22.84564 -22.36774,-26.00726 l -5.1765,-5.7484 2.43786,-16.99275 c 3.08006,-21.4692 3.0993,-56.46805 0.042,-76.32287 -7.15983,-46.49687 -27.59854,-91.55491 -59.58921,-131.36706 -16.11878,-20.05961 -31.03104,-34.21657 -50.63464,-48.06993 -26.73216,-18.89092 -40.88702,-26.27881 -66.30276,-34.60563 -49.91335,-16.35281 -96.38185,-18.06065 -147.60024,-5.42469 -37.82113,9.33076 -66.96696,22.839 -96.36162,44.66079 -40.44575,30.02582 -78.83484,83.59843 -94.20883,131.46998 -10.49196,32.66988 -13.48642,54.81494 -12.39966,91.69954 1.05245,35.72055 5.08692,55.14215 18.51113,89.11096 14.52213,36.74705 39.30143,71.84781 70.41322,99.74288 32.79008,29.39982 79.17322,52.40222 125.37909,62.17822 13.95684,2.95291 21.2747,3.64027 45.00815,4.22759 39.50577,0.97761 59.99792,-1.99063 93.71481,-13.5744 25.37224,-8.71689 60.14965,-27.66092 77.89125,-42.42909 l 3.94756,-3.28596 5.54284,6.16513 c 9.87987,10.98907 28.56206,33.71479 28.56206,34.74396 0,1.75692 -11.90972,11.10024 -27.85947,21.85609 -16.80353,11.33162 -43.49975,25.35788 -61.47387,32.29856 -18.93765,7.31275 -49.72657,15.079 -70.66666,17.8251 -11.06399,1.4509 -54.95113,2.8231 -63.33333,1.9802 z m 363.33328,-56.59544 c -21.9021,-1.96764 -40.0038,-8.56604 -59.97702,-21.86276 -20.49643,-13.64503 -31.46227,-25.59394 -67.53696,-73.59156 -5.03396,-6.69771 -19.57415,-25.51828 -32.31156,-41.82351 C 824.20787,762.54427 777.42065,700.48785 747.27445,658.71656 727.77249,631.6942 719.4856,623.18485 706.47732,616.82425 c -20.97348,-10.25529 -39.6834,-11.40304 -60.72064,-3.72485 -13.82202,5.04477 -20.30732,9.53628 -32.27888,22.3553 -18.99891,20.34386 -26.73597,45.5577 -22.88712,74.5854 2.73411,20.62044 10.79635,36.49051 26.74264,52.6414 17.01102,17.22929 34.00344,23.9354 60.66666,23.94229 21.46856,0.005 37.14378,-4.9885 55.64656,-17.72872 l 8.97991,-6.18316 8.67093,10.16228 c 4.76901,5.58926 12.22792,14.81646 16.57535,20.50488 l 7.9044,10.34262 -4.22191,4.35762 c -14.54487,15.01244 -41.27837,28.62654 -65.55524,33.38414 -13.45206,2.63624 -42.78312,2.34709 -56.42984,-0.55627 -32.41152,-6.89563 -60.42623,-23.3762 -80.7395,-47.49767 -10.23,-12.14785 -22.39204,-30.57848 -26.89076,-40.75088 -14.41927,-32.60453 -14.19831,-73.1967 0.61347,-112.70094 7.04048,-18.77756 26.88138,-44.42517 45.04504,-58.22809 25.71513,-19.54144 68.3457,-31.77691 98.97391,-28.40667 43.262,4.76044 70.38089,22.64018 103.39721,68.17069 22.63422,31.21328 86.41251,116.52027 96.07556,128.50636 5.32084,6.6 15.8874,20.16247 23.48124,30.13881 63.14671,82.9584 70.19119,91.358 85.14033,101.51836 4.03334,2.7413 10.91076,6.23993 15.28316,7.77473 8.3086,2.91651 27.0271,5.42316 33.9525,4.54671 3.7623,-0.47615 5.2686,0.94219 22.3989,21.08968 21.1831,24.91412 28.3654,33.73148 28.3654,34.82277 0,1.10374 -58.4246,0.6052 -72,-0.61438 z"
         id="path207" />
    </g>
  </g>
</svg>
